# xmcd
#
# Track frame offsets: 
#        150
#        16436
#        34649
#        53590
#        74381
#        84089
#        99628
#        121725
#        139580
#        156720
#        174881
#
# Disc length: 2653 seconds
#
# Revision: 0
# Processed by: cddbd v1.5.2PL0 Copyright (c) Steve Scherf et al.
# Submitted via: ExactAudioCopy v1.3
#
DISCID=830a5b0b
DTITLE=Felix Fables - In This Town
DYEAR=2011
DGENRE=Country
TTITLE0=Just For The Waste
TTITLE1=Wonderful World
TTITLE2=Boom Boom Boom Boom
TTITLE3=Voodoo Queen
TTITLE4=You Go Your Way
TTITLE5=The Inventor
TTITLE6=The Peoples Song
TTITLE7=Learned Foe
TTITLE8=Kicking Stones
TTITLE9=In This Town
TTITLE10=Soul By The Side Of The Road
EXTD=
EXTT0=
EXTT1=
EXTT2=
EXTT3=
EXTT4=
EXTT5=
EXTT6=
EXTT7=
EXTT8=
EXTT9=
EXTT10=
PLAYORDER=
